HIERARCHY
ROOT Hips
{
  OFFSET -69.4423 88.0299 51.6846
  CHANNELS 6 Xposition Yposition Zposition Zrotation Xrotation Yrotation
  JOINT Spine
  {
    OFFSET 12.0259 -0.162853 1.93176e-005
    CHANNELS 3 Zrotation Xrotation Yrotation
    JOINT Spine1
    {
      OFFSET 15.3169 -0.0121909 0
      CHANNELS 3 Zrotation Xrotation Yrotation
      JOINT Spine2
      {
        OFFSET 15.3176 -0.0121922 0
        CHANNELS 3 Zrotation Xrotation Yrotation
        JOINT Neck
        {
          OFFSET 19.9142 1.56236 0
          CHANNELS 3 Zrotation Xrotation Yrotation
          JOINT Head
          {
            OFFSET 6.92646 0 0
            CHANNELS 3 Zrotation Xrotation Yrotation
            End Site
            {
              OFFSET 20.7666 0 0
            }
          }
          JOINT LeftShoulder
          {
            OFFSET -4.94072 -1.14703 8.14416
            CHANNELS 3 Zrotation Xrotation Yrotation
            JOINT LeftArm
            {
              OFFSET 14.108 0 -2.74767e-005
              CHANNELS 3 Zrotation Xrotation Yrotation
              JOINT LeftForeArm
              {
                OFFSET 28.5802 -0.0783412 -0.0284884
                CHANNELS 3 Zrotation Xrotation Yrotation
                JOINT LeftHand
                {
                  OFFSET 27.092 0 0
                  CHANNELS 3 Zrotation Xrotation Yrotation
                  End Site
                  {
                    OFFSET 9.55928 -0.186424 0.145352
                  }
                }
              }
            }
          }
          JOINT RightShoulder
          {
            OFFSET -7.15748 -1.33027 -6.24935
            CHANNELS 3 Zrotation Xrotation Yrotation
            JOINT RightArm
            {
              OFFSET 14.108 0 1.82997e-005
              CHANNELS 3 Zrotation Xrotation Yrotation
              JOINT RightForeArm
              {
                OFFSET 28.5802 -0.0707221 2.30684e-005
                CHANNELS 3 Zrotation Xrotation Yrotation
                JOINT RightHand
                {
                  OFFSET 27.092 0 -1.30073e-005
                  CHANNELS 3 Zrotation Xrotation Yrotation
                  End Site
                  {
                    OFFSET 9.55929 -0.186417 -0.145354
                  }
                }
              }
            }
          }
        }
      }
    }
  }
  JOINT LeftUpLeg
  {
    OFFSET 0.00499725 -0.534999 8.837
    CHANNELS 3 Zrotation Xrotation Yrotation
    JOINT LeftLeg
    {
      OFFSET 39.9035 -0.00124594 0.000252775
      CHANNELS 3 Zrotation Xrotation Yrotation
      JOINT LeftFoot
      {
        OFFSET 39.6689 0 0
        CHANNELS 3 Zrotation Xrotation Yrotation
        JOINT LeftToe
        {
          OFFSET 10.1624 13.6296 0
          CHANNELS 3 Zrotation Xrotation Yrotation
          End Site
          {
            OFFSET 8.38147 0 0
          }
        }
      }
    }
  }
  JOINT RightUpLeg
  {
    OFFSET 0.00499725 -0.535 -8.837
    CHANNELS 3 Zrotation Xrotation Yrotation
    JOINT RightLeg
    {
      OFFSET 39.9036 -0.000268477 0.000106433
      CHANNELS 3 Zrotation Xrotation Yrotation
      JOINT RightFoot
      {
        OFFSET 39.6689 1.17892e-005 0
        CHANNELS 3 Zrotation Xrotation Yrotation
        JOINT RightToe
        {
          OFFSET 10.1624 13.6296 0
          CHANNELS 3 Zrotation Xrotation Yrotation
          End Site
          {
            OFFSET 8.38147 0 0
          }
        }
      }
    }
  }
}
MOTION
Frames:	11
Frame Time:	0.0333333
20.0958 87.5655 49.9108 -102.939 55.6234 -169.726 4.94603 2.149 0.768236 9.87349 4.35662 1.34961 9.87347 4.35661 1.3496 -17.8627 -8.04962 -16.3145 32.6044 -11.1188 22.165 -165.918 -11.3957 -98.6439 -66.2096 5.43982 82.4893 -52.068 9.09085 -28.9574 5.72305 -84.019 7.78772 -165.871 -14.6689 72.0458 -53.3371 -1.17247 -60.7604 -40.3533 -7.87682 23.0648 3.19519 72.528 -3.12224 -28.1815 -1.87215 -177.157 -29.2872 0.774457 -1.30623 -3.46151 8.98037 1.8756 90 6.36111e-015 1.27222e-014 -28.1447 -9.80787 173.567 -39.1193 -0.400726 0.239173 1.65662 6.31339 0.390633 90 1.59028e-014 1.90833e-014 
20.7824 87.9346 51.2768 -98.9836 56.5954 -173.395 4.40538 2.01365 0.680262 8.79489 4.07392 1.2049 8.79486 4.07391 1.20489 -17.9968 -7.93281 -16.3826 33.5453 -10.3598 22.9112 -165.827 -11.3961 -98.7654 -64.5918 5.53743 83.2578 -52.4375 9.2729 -29.1105 14.6535 -87.6164 16.8382 -165.775 -14.566 72.0702 -53.2881 -3.36794 -63.9514 -43.7776 -9.15485 24.6292 3.37521 74.3615 -3.33292 -24.2903 -2.15124 -176.66 -28.7167 0.824984 -1.29791 -2.62618 7.96147 1.67798 90 1.35174e-014 6.36111e-015 -23.7306 -9.3901 174.578 -37.4779 -0.425475 0.25662 1.84239 6.73105 0.397252 90 1.43125e-014 1.59028e-014 
21.4157 88.2439 52.5398 -95.8154 57.5333 -176.456 3.81691 1.89285 0.609592 7.61982 3.82249 1.09271 7.61981 3.8225 1.09269 -18.0601 -7.69434 -16.2492 34.4574 -9.5885 23.0811 -165.742 -11.1882 -98.749 -62.7629 5.64238 84.0903 -53.0738 9.54407 -29.3664 162.909 -87.7294 165.201 -165.673 -14.2562 72.2566 -53.0892 -5.2081 -66.9113 -47.0351 -10.4581 26.0577 3.49534 75.3807 -3.4387 -20.9486 -2.5314 -176.165 -28.1534 0.860377 -1.29271 -2.07046 6.8407 1.47784 90 5.56597e-015 -0 -20.1338 -8.76277 175.508 -35.9461 -0.444473 0.277609 1.90381 6.87618 0.393378 90 -3.97569e-015 -3.18055e-015 
22.0617 88.4755 53.5777 -93.0847 58.0497 -178.994 3.24148 1.66576 0.516105 6.47198 3.35856 0.93783 6.47198 3.35856 0.937815 -17.9209 -7.43842 -16.0629 35.194 -8.72069 23.2537 -165.831 -10.8995 -98.726 -61.0327 5.89825 84.6475 -54.063 9.86959 -29.7104 175.793 -81.6422 178.187 -165.762 -13.8952 72.4728 -52.9808 -6.69957 -69.5768 -50.5401 -11.925 27.5275 3.51616 76.1492 -3.47409 -18.1659 -2.78399 -175.971 -27.6034 0.889729 -1.28842 -1.62505 6.13401 1.34409 90 -2.62396e-014 -1.59028e-014 -17.0922 -8.49968 175.993 -34.6636 -0.45754 0.294188 2.00559 6.93306 0.377961 90 2.38542e-015 6.36111e-015 
22.6685 88.6948 54.6168 -90.4247 58.2274 178.765 2.77068 1.37296 0.446053 5.53301 2.76634 0.82566 5.533 2.76632 0.82565 -18.1107 -7.2956 -16.2369 36.3356 -8.35654 23.289 -165.672 -10.846 -98.9462 -59.3927 5.56979 84.8775 -54.8268 10.1635 -29.9895 177.641 -75.4612 -179.801 -165.615 -13.8003 72.4053 -52.6517 -7.94767 -71.4702 -53.8857 -13.3955 28.8411 3.80403 77.4277 -3.75957 -15.3475 -3.06663 -176.009 -26.7891 0.91725 -1.28547 -1.21381 5.59258 1.2354 90 1.19271e-014 9.54166e-015 -14.1568 -7.95278 176.293 -33.4432 -0.464677 0.313854 2.10832 7.32144 0.416412 90 -2.14687e-014 -9.54166e-015 
23.0167 88.875 55.458 -88.7787 59.0592 177.134 2.30444 1.18824 0.401158 4.60201 2.3921 0.754564 4.60201 2.3921 0.754555 -18.9513 -6.84922 -15.3892 38.1281 -8.42054 21.2755 -164.612 -10.2863 -98.1421 -58.1753 5.16338 85.0029 -55.6456 10.5702 -30.3274 177.662 -67.448 -179.53 -164.542 -13.1928 73.3574 -52.403 -8.69786 -73.5567 -57.0902 -14.8455 29.9979 3.90405 77.7972 -3.84191 -13.4036 -2.58992 -175.609 -26.2441 0.927379 -1.28428 -0.74206 4.97529 1.13137 90 -7.95139e-015 -1.59028e-014 -12.1088 -6.93903 176.962 -32.3362 -0.47366 0.336728 2.05641 7.67469 0.474705 90 -3.81667e-014 -0 
23.3994 89.0221 56.1592 -87.3431 59.8082 175.928 1.9428 0.952017 0.331452 3.88089 1.91521 0.630691 3.88087 1.91521 0.630683 -18.5504 -6.45542 -15.6342 37.6281 -7.0924 21.9727 -164.975 -9.9262 -98.5895 -57.0555 4.59151 84.6093 -56.3275 10.8767 -30.5812 177.922 -60.5879 -179.048 -164.923 -12.8192 73.027 -52.3339 -9.13791 -75.2121 -60.0966 -16.2229 30.9622 3.91735 77.7982 -3.84699 -11.6155 -2.35126 -175.595 -25.6247 0.936837 -1.28528 -0.455045 4.35862 1.02234 90 -4.21423e-014 -2.8625e-014 -10.4648 -6.37968 177.074 -31.4811 -0.480488 0.352883 2.20001 7.42011 0.414932 90 -1.51076e-014 -9.54166e-015 
23.7158 89.0873 56.7701 -85.8726 60.6774 174.648 1.64593 0.748451 0.29178 3.28845 1.50541 0.562166 3.28845 1.5054 0.56215 -18.7916 -6.13778 -15.2893 38.124 -6.66004 21.3865 -164.617 -9.5539 -98.3447 -56.0827 4.0688 84.4706 -57.2087 11.2529 -30.8957 178.159 -55.5845 -178.573 -164.562 -12.4203 73.3897 -52.5364 -9.67936 -76.7877 -63.0159 -17.6028 31.7866 3.82304 77.0647 -3.74436 -9.96226 -2.04631 -175.556 -25.1066 0.945684 -1.28888 -0.0900757 3.63133 0.899848 90 -1.43125e-014 -1.59028e-014 -9.08079 -5.72003 177.215 -30.7994 -0.486737 0.367896 2.14154 7.30073 0.414186 90 9.54166e-015 6.36111e-015 
23.9921 89.146 57.2501 -84.6411 61.767 173.664 1.3788 0.60303 0.235708 2.75536 1.21204 0.457039 2.75535 1.21203 0.457025 -19.0592 -5.91467 -15.3491 38.9264 -6.09898 21.4833 -164.309 -9.42211 -98.4624 -55.924 3.98309 84.2606 -58.4287 11.6815 -31.2729 178.593 -50.686 -178.03 -164.275 -12.2607 73.3908 -52.883 -10.0509 -78.2076 -65.5452 -18.8342 32.3891 3.70842 76.0942 -3.61076 -8.59527 -1.60165 -175.651 -24.5681 0.954407 -1.29552 0.163191 2.96352 0.790486 90 8.74653e-015 -3.18055e-015 -8.15977 -5.01308 177.183 -30.4778 -0.483191 0.378967 2.28577 6.92968 0.338663 90 2.3059e-014 1.90833e-014 
24.6423 89.0926 57.2752 -84.603 62.8589 175.378 1.06921 0.433482 -0.13841 2.13955 0.864764 -0.284748 2.13954 0.864775 -0.284756 -18.8973 -5.78238 -15.0013 38.9989 -5.88882 21.1336 -164.376 -9.15982 -98.2081 -56.0332 3.9849 84.0108 -59.4867 12.0005 -31.556 179.054 -47.0286 -177.633 -164.347 -11.9595 73.7495 -53.5396 -10.3027 -79.3724 -67.4819 -19.7984 32.7628 3.5207 74.865 -3.38433 -7.63676 -1.16555 -177.821 -23.5487 0.981251 -1.3072 0.261866 1.86074 0.591437 90 -5.56597e-015 3.18055e-015 -8.641 -5.00642 174.773 -30.9261 -0.454163 0.385559 2.52276 5.36021 0.0901335 90 -8.74653e-015 -9.54166e-015 
24.5215 89.1966 57.9496 -82.0997 64.089 171.566 0.942969 0.317755 0.178067 1.88499 0.638881 0.351056 1.88498 0.638882 0.351051 -18.8597 -5.6321 -14.9096 39.9803 -5.55091 20.9198 -164.351 -8.97931 -98.2541 -56.413 4.44861 84.408 -60.9927 12.5198 -31.9467 179.369 -43.9792 -177.377 -164.344 -11.7254 73.7975 -54.7215 -10.9431 -80.5137 -69.0233 -20.5602 33.0074 3.21092 73.0993 -3.0276 -6.32884 -0.947506 -176.058 -24.1135 0.987731 -1.2766 0.790003 1.02755 0.50533 90 7.95139e-016 -3.18055e-015 -6.73699 -4.1358 176.818 -29.9033 -0.48385 0.389945 2.36368 5.59964 0.145115 90 -1.51076e-014 -1.59028e-014 
